<svg width="200" height="200" viewBox="0 0 200 200" xmlns="http://www.w3.org/2000/svg">
  <!-- Background circle -->
  <circle cx="100" cy="100" r="90" fill="#2c3e50" stroke="#34495e" stroke-width="3"/>
  
  <!-- Book base -->
  <rect x="65" y="70" width="70" height="85" rx="4" fill="#ecf0f1" stroke="#bdc3c7" stroke-width="1"/>
  
  <!-- Book spine -->
  <rect x="65" y="70" width="8" height="85" fill="#3498db"/>
  
  <!-- Book pages effect -->
  <rect x="67" y="72" width="66" height="81" rx="3" fill="#ffffff"/>
  <rect x="69" y="74" width="62" height="77" rx="2" fill="#f8f9fa"/>
  
  <!-- Page lines -->
  <line x1="75" y1="85" x2="125" y2="85" stroke="#bdc3c7" stroke-width="1"/>
  <line x1="75" y1="95" x2="120" y2="95" stroke="#bdc3c7" stroke-width="1"/>
  <line x1="75" y1="105" x2="125" y2="105" stroke="#bdc3c7" stroke-width="1"/>
  <line x1="75" y1="115" x2="115" y2="115" stroke="#bdc3c7" stroke-width="1"/>
  <line x1="75" y1="125" x2="125" y2="125" stroke="#bdc3c7" stroke-width="1"/>
  <line x1="75" y1="135" x2="110" y2="135" stroke="#bdc3c7" stroke-width="1"/>
  
  <!-- Bookmark ribbon -->
  <rect x="120" y="70" width="4" height="45" fill="#e74c3c"/>
  <polygon points="120,115 124,115 122,120" fill="#c0392b"/>
  
  <!-- Subtle shadow -->
  <ellipse cx="100" cy="165" rx="25" ry="5" fill="#2c3e50" opacity="0.3"/>
</svg>